<?xml version="1.0" encoding="UTF-8"?>
<svg xmlns="http://www.w3.org/2000/svg" xmlns:xlink="http://www.w3.org/1999/xlink" viewBox="0 0 64 64" width="64px" height="64px">
<defs>
<linearGradient id="linear0" gradientUnits="userSpaceOnUse" x1="72.14344" y1="72.722557" x2="104.482628" y2="72.722557" gradientTransform="matrix(0.283186,0,0,0.283186,0,0)">
<stop offset="0" style="stop-color:rgb(84.313726%,74.117649%,57.254905%);stop-opacity:1;"/>
<stop offset="1" style="stop-color:rgb(100%,100%,100%);stop-opacity:1;"/>
</linearGradient>
<linearGradient id="linear1" gradientUnits="userSpaceOnUse" x1="137.584564" y1="137.701096" x2="169.295197" y2="137.701096" gradientTransform="matrix(0.283186,0,0,0.283186,0,0)">
<stop offset="0" style="stop-color:rgb(84.313726%,74.117649%,57.254905%);stop-opacity:1;"/>
<stop offset="1" style="stop-color:rgb(100%,100%,100%);stop-opacity:1;"/>
</linearGradient>
<linearGradient id="linear2" gradientUnits="userSpaceOnUse" x1="113" y1="19.76087" x2="113" y2="181.912338" gradientTransform="matrix(0.283186,0,0,0.283186,0,0)">
<stop offset="0" style="stop-color:rgb(70.980394%,54.509807%,26.274511%);stop-opacity:1;"/>
<stop offset="1" style="stop-color:rgb(96.470588%,90.196079%,70.980394%);stop-opacity:1;"/>
</linearGradient>
<linearGradient id="linear3" gradientUnits="userSpaceOnUse" x1="112.996468" y1="19.76087" x2="112.996468" y2="181.912338" gradientTransform="matrix(0.283186,0,0,0.283186,0,0)">
<stop offset="0" style="stop-color:rgb(70.980394%,54.509807%,26.274511%);stop-opacity:1;"/>
<stop offset="1" style="stop-color:rgb(96.470588%,90.196079%,70.980394%);stop-opacity:1;"/>
</linearGradient>
</defs>
<g id="surface4520905">
<path style=" stroke:none;fill-rule:nonzero;fill:url(#linear0);" d="M 29 24.601562 C 28.199219 25.398438 27 25.398438 26.199219 24.601562 L 21 19.398438 C 20.199219 18.601562 20.199219 17.398438 21 16.601562 C 21.800781 15.800781 23 15.800781 23.800781 16.601562 L 29 21.800781 C 29.800781 22.5 29.800781 23.800781 29 24.601562 Z M 29 24.601562 "/>
<path style=" stroke:none;fill-rule:nonzero;fill:url(#linear1);" d="M 47.398438 42.898438 C 46.601562 43.699219 45.398438 43.699219 44.601562 42.898438 L 39.601562 37.898438 C 38.800781 37.101562 38.800781 35.898438 39.601562 35.101562 C 40.398438 34.300781 41.601562 34.300781 42.398438 35.101562 L 47.398438 40.101562 C 48.101562 40.898438 48.101562 42.101562 47.398438 42.898438 Z M 47.398438 42.898438 "/>
<path style=" stroke:none;fill-rule:nonzero;fill:url(#linear2);" d="M 50 9 L 14 9 C 11.199219 9 9 11.199219 9 14 L 9 50 C 9 52.800781 11.199219 55 14 55 L 50 55 C 52.800781 55 55 52.800781 55 50 L 55 14 C 55 11.199219 52.800781 9 50 9 Z M 53 50 C 53 51.699219 51.699219 53 50 53 L 14 53 C 12.300781 53 11 51.699219 11 50 L 11 14 C 11 12.300781 12.300781 11 14 11 L 50 11 C 51.699219 11 53 12.300781 53 14 Z M 53 50 "/>
<path style=" stroke:none;fill-rule:nonzero;fill:url(#linear3);" d="M 48.101562 39.398438 L 43.101562 34.398438 C 42.898438 34.199219 42.800781 34.101562 42.601562 34 C 42.101562 33.699219 41.5 33.5 40.800781 33.5 C 40 33.5 39.199219 33.800781 38.601562 34.398438 L 35.300781 37.699219 C 31.398438 35.699219 28.398438 32.601562 26.300781 28.699219 L 29.601562 25.398438 C 29.699219 25.300781 29.898438 25.101562 30 24.898438 C 30.300781 24.398438 30.5 23.800781 30.5 23.199219 C 30.5 22.601562 30.300781 22 30 21.5 C 29.898438 21.300781 29.800781 21.199219 29.601562 21 L 24.5 15.898438 C 24.199219 15.601562 23.898438 15.398438 23.5 15.199219 C 23.300781 15.101562 23.101562 15.101562 22.898438 15 C 22.699219 15 22.5 14.898438 22.300781 14.898438 C 21.5 14.898438 20.699219 15.199219 20.101562 15.800781 L 17.101562 18.800781 C 14.699219 21.199219 14.199219 24.898438 16 27.800781 C 21 36 27.699219 42.699219 36 47.800781 C 37.101562 48.5 38.5 48.898438 39.800781 48.898438 C 41.800781 48.898438 43.601562 48.101562 45 46.699219 L 48 43.699219 C 49.101562 42.601562 49.199219 41 48.398438 39.800781 C 48.398438 39.699219 48.199219 39.5 48.101562 39.398438 Z M 21.699219 17.300781 C 21.898438 17.101562 22.101562 17 22.398438 17 C 22.5 17 22.5 17 22.601562 17 C 22.800781 17 23 17.101562 23.101562 17.300781 L 28.300781 22.5 C 28.5 22.699219 28.601562 22.898438 28.601562 23.199219 C 28.601562 23.5 28.5 23.699219 28.300781 23.898438 C 27.898438 24.300781 27.300781 24.300781 26.898438 23.898438 L 21.699219 18.699219 C 21.300781 18.300781 21.300781 17.699219 21.699219 17.300781 Z M 43.601562 45.398438 C 42.601562 46.398438 41.199219 47 39.800781 47 C 38.800781 47 37.898438 46.699219 37 46.199219 C 29 41.398438 22.601562 34.898438 17.699219 26.898438 C 16.398438 24.800781 16.800781 22.101562 18.5 20.300781 L 19.601562 19.199219 C 19.699219 19.5 19.898438 19.800781 20.199219 20.101562 L 25.398438 25.300781 C 25.601562 25.5 25.898438 25.699219 26.199219 25.898438 L 24.800781 27.300781 C 24.199219 27.898438 24.101562 28.699219 24.5 29.398438 C 26.800781 33.800781 30.101562 37.199219 34.5 39.398438 C 35.199219 39.800781 36.101562 39.601562 36.601562 39.101562 L 38.101562 37.601562 C 38.199219 38 38.5 38.300781 38.800781 38.601562 L 43.800781 43.601562 C 44.101562 43.898438 44.398438 44.101562 44.800781 44.199219 Z M 46.601562 42.199219 C 46.199219 42.601562 45.601562 42.601562 45.199219 42.199219 L 40.199219 37.199219 C 40.101562 37 40 36.800781 40 36.5 C 40 36.199219 40.101562 36 40.300781 35.800781 C 40.5 35.601562 40.800781 35.5 41 35.5 C 41.101562 35.5 41.300781 35.5 41.398438 35.601562 C 41.5 35.601562 41.5 35.699219 41.601562 35.699219 L 46.699219 40.800781 C 46.800781 40.898438 46.800781 41 46.898438 41.101562 C 47 41.5 46.898438 41.898438 46.601562 42.199219 Z M 46.601562 42.199219 "/>
</g>
</svg>
