<?xml version="1.0" encoding="UTF-8"?>
<svg xmlns="http://www.w3.org/2000/svg" xmlns:xlink="http://www.w3.org/1999/xlink" viewBox="0 0 64 64" width="64px" height="64px">
<g id="surface9085260">
<path style=" stroke:none;fill-rule:nonzero;fill:rgb(100%,67.450982%,68.627453%);fill-opacity:1;" d="M 49.757812 57 C 48.988281 57 48.222656 56.707031 47.636719 56.121094 L 32 40.484375 L 16.363281 56.121094 C 15.195312 57.289062 13.289062 57.289062 12.121094 56.121094 L 7.878906 51.878906 C 6.707031 50.707031 6.707031 48.804688 7.878906 47.636719 L 23.515625 32 L 7.878906 16.363281 C 6.710938 15.195312 6.710938 13.289062 7.878906 12.121094 L 12.121094 7.878906 C 13.289062 6.707031 15.195312 6.707031 16.363281 7.878906 L 32 23.515625 L 47.636719 7.878906 C 48.804688 6.707031 50.710938 6.710938 51.878906 7.878906 L 56.121094 12.121094 C 57.292969 13.292969 57.292969 15.195312 56.121094 16.363281 L 40.484375 32 L 56.121094 47.636719 C 57.289062 48.804688 57.289062 50.710938 56.121094 51.878906 L 51.878906 56.121094 C 51.292969 56.707031 50.523438 57 49.757812 57 Z M 32 37.65625 L 49.050781 54.707031 C 49.441406 55.097656 50.074219 55.097656 50.464844 54.707031 L 54.707031 50.464844 C 55.097656 50.074219 55.097656 49.441406 54.707031 49.050781 L 37.65625 32 L 54.707031 14.949219 C 55.097656 14.558594 55.097656 13.925781 54.707031 13.535156 L 50.464844 9.292969 C 50.074219 8.902344 49.4375 8.902344 49.050781 9.292969 L 32 26.34375 L 14.949219 9.292969 C 14.558594 8.902344 13.925781 8.902344 13.535156 9.292969 L 9.292969 13.535156 C 8.902344 13.925781 8.902344 14.558594 9.292969 14.949219 L 26.34375 32 L 9.292969 49.050781 C 8.902344 49.441406 8.902344 50.074219 9.292969 50.464844 L 13.535156 54.707031 C 13.925781 55.097656 14.558594 55.097656 14.949219 54.707031 Z M 32 37.65625 "/>
<path style=" stroke:none;fill-rule:nonzero;fill:rgb(100%,100%,100%);fill-opacity:1;" d="M 52.0625 14.0625 L 49.9375 11.9375 L 32 29.878906 L 14.0625 11.9375 L 11.9375 14.0625 L 29.878906 32 L 11.9375 49.9375 L 14.0625 52.0625 L 32 34.121094 L 49.9375 52.0625 L 52.0625 49.9375 L 34.121094 32 Z M 52.0625 14.0625 "/>
</g>
</svg>
