<?xml version="1.0" encoding="UTF-8"?>
<svg xmlns="http://www.w3.org/2000/svg" xmlns:xlink="http://www.w3.org/1999/xlink" viewBox="0 0 64 64" width="64px" height="64px">
<defs>
<linearGradient id="linear0" gradientUnits="userSpaceOnUse" x1="120.0625" y1="20.74609" x2="120.0625" y2="189.200836" gradientTransform="matrix(0.283186,0,0,0.283186,0,0)">
<stop offset="0" style="stop-color:rgb(96.470588%,90.196079%,70.980394%);stop-opacity:1;"/>
<stop offset="1" style="stop-color:rgb(70.980394%,54.509807%,26.274511%);stop-opacity:1;"/>
</linearGradient>
<linearGradient id="linear1" gradientUnits="userSpaceOnUse" x1="160.671875" y1="20.74609" x2="160.671875" y2="189.200836" gradientTransform="matrix(0.283186,0,0,0.283186,0,0)">
<stop offset="0" style="stop-color:rgb(96.470588%,90.196079%,70.980394%);stop-opacity:1;"/>
<stop offset="1" style="stop-color:rgb(70.980394%,54.509807%,26.274511%);stop-opacity:1;"/>
</linearGradient>
<linearGradient id="linear2" gradientUnits="userSpaceOnUse" x1="74.14212" y1="52.96875" x2="74.14212" y2="96.127693" gradientTransform="matrix(0.283186,0,0,0.283186,0,0)">
<stop offset="0" style="stop-color:rgb(100%,100%,100%);stop-opacity:1;"/>
<stop offset="1" style="stop-color:rgb(84.313726%,74.117649%,57.254905%);stop-opacity:1;"/>
</linearGradient>
</defs>
<g id="surface263704209">
<path style=" stroke:none;fill-rule:nonzero;fill:url(#linear0);" d="M 58 18.300781 C 58 11.519531 52.394531 6 45.5 6 C 41.859375 6 38.589844 7.550781 36.300781 10 L 14.5 10 C 12.019531 10 10 12.019531 10 14.5 L 10 49.5 C 10 49.503906 10 49.503906 10 49.503906 C 10.003906 51.984375 12.019531 54 14.5 54 L 49.5 54 C 51.980469 54 54 51.980469 54 49.5 L 54 28.140625 C 54 28.03125 53.96875 27.933594 53.9375 27.835938 C 56.09375 25.007812 58 22.222656 58 18.300781 Z M 46.597656 41.578125 C 46.972656 41.199219 47.085938 40.65625 47.144531 40.359375 C 47.171875 40.234375 47.195312 40.101562 47.234375 39.957031 C 48.328125 35.828125 50.164062 32.898438 52 30.398438 L 52 46.980469 Z M 43.234375 38.214844 L 37.015625 31.996094 L 38.839844 30.179688 C 40.457031 32.363281 42.089844 34.867188 43.234375 38.214844 Z M 45.5 8 C 51.289062 8 56 12.621094 56 18.300781 C 56 21.878906 54.148438 24.285156 51.804688 27.339844 C 49.550781 30.269531 47.007812 33.578125 45.5 38.730469 C 43.992188 33.578125 41.449219 30.269531 39.195312 27.339844 C 36.851562 24.285156 35 21.878906 35 18.300781 C 35 12.621094 39.710938 8 45.5 8 Z M 14.5 12 L 34.785156 12 C 33.660156 13.84375 33 15.996094 33 18.300781 C 33 20.621094 33.679688 22.539062 34.671875 24.308594 L 12 47.078125 L 12 14.5 C 12 13.121094 13.121094 12 14.5 12 Z M 12.039062 49.875 L 35.757812 26.054688 C 36.339844 26.894531 36.96875 27.71875 37.609375 28.558594 C 37.613281 28.5625 37.617188 28.566406 37.621094 28.570312 L 14.125 51.960938 C 13.050781 51.796875 12.203125 50.949219 12.039062 49.875 Z M 31.984375 37.003906 L 47.074219 52 L 16.921875 52 Z M 49.871094 51.960938 L 33.402344 35.59375 L 35.597656 33.40625 L 51.972656 49.78125 C 51.84375 50.902344 50.980469 51.792969 49.871094 51.960938 Z M 49.871094 51.960938 "/>
<path style=" stroke:none;fill-rule:nonzero;fill:url(#linear1);" d="M 45.5 23 C 47.980469 23 50 20.980469 50 18.5 C 50 16.019531 47.980469 14 45.5 14 C 43.019531 14 41 16.019531 41 18.5 C 41 20.980469 43.019531 23 45.5 23 Z M 45.5 16 C 46.878906 16 48 17.121094 48 18.5 C 48 19.878906 46.878906 21 45.5 21 C 44.121094 21 43 19.878906 43 18.5 C 43 17.121094 44.121094 16 45.5 16 Z M 45.5 16 "/>
<path style=" stroke:none;fill-rule:nonzero;fill:url(#linear2);" d="M 21.113281 20.035156 L 21.113281 22.371094 L 24.4375 22.371094 C 24.003906 23.785156 22.820312 24.796875 21.113281 24.796875 C 19.074219 24.796875 17.425781 23.148438 17.425781 21.109375 C 17.425781 19.074219 19.074219 17.425781 21.113281 17.425781 C 22.027344 17.425781 22.863281 17.761719 23.507812 18.3125 L 25.226562 16.59375 C 24.140625 15.605469 22.699219 15 21.113281 15 C 17.738281 15 15 17.734375 15 21.109375 C 15 24.484375 17.738281 27.222656 21.113281 27.222656 C 26.457031 27.222656 27.375 22.425781 26.871094 20.042969 Z M 21.113281 20.035156 "/>
</g>
</svg>
