<?xml version="1.0" encoding="UTF-8"?>
<svg xmlns="http://www.w3.org/2000/svg" xmlns:xlink="http://www.w3.org/1999/xlink" viewBox="0 0 64 64" width="64px" height="64px">
<defs>
<linearGradient id="linear0" gradientUnits="userSpaceOnUse" x1="113" y1="35.605591" x2="113" y2="196.605881" gradientTransform="matrix(0.283186,0,0,0.283186,0,0)">
<stop offset="0" style="stop-color:rgb(96.470588%,90.196079%,70.980394%);stop-opacity:1;"/>
<stop offset="1" style="stop-color:rgb(70.980394%,54.509807%,26.274511%);stop-opacity:1;"/>
</linearGradient>
<linearGradient id="linear1" gradientUnits="userSpaceOnUse" x1="113" y1="63.5625" x2="113" y2="166.727966" gradientTransform="matrix(0.283186,0,0,0.283186,0,0)">
<stop offset="0" style="stop-color:rgb(100%,100%,100%);stop-opacity:1;"/>
<stop offset="1" style="stop-color:rgb(84.313726%,74.117649%,57.254905%);stop-opacity:1;"/>
</linearGradient>
</defs>
<g id="surface263702897">
<path style=" stroke:none;fill-rule:nonzero;fill:url(#linear0);" d="M 50 56 L 14 56 C 11.242188 56 9 53.757812 9 51 L 9 15 C 9 12.242188 11.242188 10 14 10 L 50 10 C 52.757812 10 55 12.242188 55 15 L 55 51 C 55 53.757812 52.757812 56 50 56 Z M 14 12 C 12.347656 12 11 13.347656 11 15 L 11 51 C 11 52.652344 12.347656 54 14 54 L 50 54 C 51.652344 54 53 52.652344 53 51 L 53 15 C 53 13.347656 51.652344 12 50 12 Z M 14 12 "/>
<path style=" stroke:none;fill-rule:nonzero;fill:url(#linear1);" d="M 32 18 C 22.609375 18 15 24.269531 15 32 C 15 36.859375 18.007812 41.136719 22.570312 43.648438 C 22.324219 44.425781 21.996094 45.125 21.65625 45.726562 C 21.1875 46.558594 22.050781 47.511719 22.921875 47.128906 C 24.371094 46.488281 25.851562 45.664062 26.5625 45.257812 C 28.269531 45.730469 30.097656 46 32 46 C 41.390625 46 49 39.730469 49 32 C 49 24.269531 41.390625 18 32 18 Z M 32 18 "/>
</g>
</svg>
