<?xml version="1.0" encoding="UTF-8"?>
<svg xmlns="http://www.w3.org/2000/svg" xmlns:xlink="http://www.w3.org/1999/xlink" viewBox="0 0 100 100" width="100px" height="100px">
<g id="surface254435507">
<path style=" stroke:none;fill-rule:nonzero;fill:rgb(81.176472%,61.56863%,7.058824%);fill-opacity:1;" d="M 78 13 C 77.449219 13 77 13.449219 77 14 C 77 14.550781 77.449219 15 78 15 C 78.550781 15 79 14.550781 79 14 C 79 13.449219 78.550781 13 78 13 Z M 78 13 "/>
<path style=" stroke:none;fill-rule:nonzero;fill:rgb(98.431373%,87.450981%,79.215688%);fill-opacity:1;" d="M 50 12 C 29.011719 12 12 29.011719 12 50 C 12 70.988281 29.011719 88 50 88 C 70.988281 88 88 70.988281 88 50 C 88 29.011719 70.988281 12 50 12 Z M 50 12 "/>
<path style=" stroke:none;fill-rule:nonzero;fill:rgb(81.176472%,61.56863%,7.058824%);fill-opacity:1;" d="M 84 12 C 81.789062 12 80 13.789062 80 16 C 80 18.210938 81.789062 20 84 20 C 86.210938 20 88 18.210938 88 16 C 88 13.789062 86.210938 12 84 12 Z M 84 12 "/>
<path style=" stroke:none;fill-rule:nonzero;fill:rgb(81.176472%,61.56863%,7.058824%);fill-opacity:1;" d="M 14 24 C 12.894531 24 12 24.894531 12 26 C 12 27.105469 12.894531 28 14 28 C 15.105469 28 16 27.105469 16 26 C 16 24.894531 15.105469 24 14 24 Z M 14 24 "/>
<path style=" stroke:none;fill-rule:nonzero;fill:rgb(98.431373%,80.392158%,34.901962%);fill-opacity:1;" d="M 78 75 C 76.894531 75 76 75.894531 76 77 C 76 78.105469 76.894531 79 78 79 C 79.105469 79 80 78.105469 80 77 C 80 75.894531 79.105469 75 78 75 Z M 17 74 C 14.789062 74 13 75.789062 13 78 C 13 80.210938 14.789062 82 17 82 C 19.210938 82 21 80.210938 21 78 C 21 75.789062 19.210938 74 17 74 Z M 17 74 "/>
<path style=" stroke:none;fill-rule:nonzero;fill:rgb(81.176472%,61.56863%,7.058824%);fill-opacity:1;" d="M 24 81 C 22.894531 81 22 81.894531 22 83 C 22 84.105469 22.894531 85 24 85 C 25.105469 85 26 84.105469 26 83 C 26 81.894531 25.105469 81 24 81 Z M 24 81 "/>
<path style=" stroke:none;fill-rule:nonzero;fill:rgb(100%,100%,100%);fill-opacity:1;" d="M 66.5 76 C 65.121094 76 64 77.121094 64 78.5 C 64 79.878906 65.121094 81 66.5 81 C 67.878906 81 69 79.878906 69 78.5 C 69 77.121094 67.878906 76 66.5 76 Z M 16 47 C 15.449219 47 15 47.449219 15 48 C 15 48.550781 15.449219 49 16 49 C 16.550781 49 17 48.550781 17 48 C 17 47.449219 16.550781 47 16 47 Z M 16 47 "/>
<path style=" stroke:none;fill-rule:nonzero;fill:rgb(81.176472%,61.56863%,7.058824%);fill-opacity:1;" d="M 86 30 C 85.449219 30 85 30.449219 85 31 C 85 31.550781 85.449219 32 86 32 C 86.550781 32 87 31.550781 87 31 C 87 30.449219 86.550781 30 86 30 Z M 86 30 "/>
<path style=" stroke:none;fill-rule:nonzero;fill:rgb(100%,100%,100%);fill-opacity:1;" d="M 80 64 C 78.894531 64 78 64.894531 78 66 C 78 67.105469 78.894531 68 80 68 C 81.105469 68 82 67.105469 82 66 C 82 64.894531 81.105469 64 80 64 Z M 80 64 "/>
<path style=" stroke:none;fill-rule:nonzero;fill:rgb(100%,100%,100%);fill-opacity:1;" d="M 26.699219 29.699219 L 73.300781 29.699219 L 73.300781 37.300781 L 26.699219 37.300781 Z M 26.699219 29.699219 "/>
<path style=" stroke:none;fill-rule:nonzero;fill:rgb(81.176472%,61.56863%,7.058824%);fill-opacity:1;" d="M 72.601562 30.398438 L 72.601562 36.601562 L 27.398438 36.601562 L 27.398438 30.398438 L 72.601562 30.398438 M 74 29 L 26 29 L 26 38 L 74 38 Z M 74 29 "/>
<path style=" stroke:none;fill-rule:nonzero;fill:rgb(100%,100%,100%);fill-opacity:1;" d="M 26.699219 45.699219 L 73.300781 45.699219 L 73.300781 53.300781 L 26.699219 53.300781 Z M 26.699219 45.699219 "/>
<path style=" stroke:none;fill-rule:nonzero;fill:rgb(81.176472%,61.56863%,7.058824%);fill-opacity:1;" d="M 72.601562 46.398438 L 72.601562 52.601562 L 27.398438 52.601562 L 27.398438 46.398438 L 72.601562 46.398438 M 74 45 L 26 45 L 26 54 L 74 54 Z M 74 45 "/>
<path style=" stroke:none;fill-rule:nonzero;fill:rgb(100%,100%,100%);fill-opacity:1;" d="M 26.699219 61.699219 L 73.300781 61.699219 L 73.300781 69.300781 L 26.699219 69.300781 Z M 26.699219 61.699219 "/>
<path style=" stroke:none;fill-rule:nonzero;fill:rgb(81.176472%,61.56863%,7.058824%);fill-opacity:1;" d="M 72.601562 62.398438 L 72.601562 68.601562 L 27.398438 68.601562 L 27.398438 62.398438 L 72.601562 62.398438 M 74 61 L 26 61 L 26 70 L 74 70 Z M 59.5 51 L 29.5 51 C 29.199219 51 29 50.800781 29 50.5 C 29 50.199219 29.199219 50 29.5 50 L 59.5 50 C 59.800781 50 60 50.199219 60 50.5 C 60 50.800781 59.800781 51 59.5 51 Z M 70.601562 51 L 69.699219 51 C 69.398438 51 69.199219 50.800781 69.199219 50.5 C 69.199219 50.199219 69.398438 50 69.699219 50 L 70.601562 50 C 70.898438 50 71.101562 50.199219 71.101562 50.5 C 71.101562 50.800781 70.898438 51 70.601562 51 Z M 70.601562 51 "/>
<path style=" stroke:none;fill-rule:nonzero;fill:rgb(81.176472%,61.56863%,7.058824%);fill-opacity:1;" d="M 72.5 67 L 33.5 67 C 33.199219 67 33 66.800781 33 66.5 C 33 66.199219 33.199219 66 33.5 66 L 72.5 66 C 72.800781 66 73 66.199219 73 66.5 C 73 66.800781 72.800781 67 72.5 67 Z M 30.398438 67 L 29.5 67 C 29.199219 67 29 66.800781 29 66.5 C 29 66.199219 29.199219 66 29.5 66 L 30.398438 66 C 30.699219 66 30.898438 66.199219 30.898438 66.5 C 30.898438 66.800781 30.699219 67 30.398438 67 Z M 30.398438 67 "/>
<path style=" stroke:none;fill-rule:nonzero;fill:rgb(81.176472%,61.56863%,7.058824%);fill-opacity:1;" d="M 66.5 35 L 27.5 35 C 27.199219 35 27 34.800781 27 34.5 C 27 34.199219 27.199219 34 27.5 34 L 66.5 34 C 66.800781 34 67 34.199219 67 34.5 C 67 34.800781 66.800781 35 66.5 35 Z M 66.5 35 "/>
<path style=" stroke:none;fill-rule:nonzero;fill:rgb(81.176472%,61.56863%,7.058824%);fill-opacity:1;" d="M 70.5 35 L 69.601562 35 C 69.300781 35 69.101562 34.800781 69.101562 34.5 C 69.101562 34.199219 69.300781 34 69.601562 34 L 70.5 34 C 70.800781 34 71 34.199219 71 34.5 C 71 34.800781 70.800781 35 70.5 35 Z M 70.5 35 "/>
<path style=" stroke:none;fill-rule:nonzero;fill:rgb(81.176472%,61.56863%,7.058824%);fill-opacity:1;" d="M 66.898438 51 L 63.5 51 C 63.199219 51 63 50.800781 63 50.5 C 63 50.199219 63.199219 50 63.5 50 L 66.898438 50 C 67.199219 50 67.398438 50.199219 67.398438 50.5 C 67.398438 50.800781 67.199219 51 66.898438 51 Z M 66.898438 51 "/>
</g>
</svg>
