<?xml version="1.0" encoding="UTF-8"?>
<svg xmlns="http://www.w3.org/2000/svg" xmlns:xlink="http://www.w3.org/1999/xlink" viewBox="0 0 30 30" width="30px" height="30px">
<g id="surface2304869">
<path style=" stroke:none;fill-rule:nonzero;fill:rgb(100%,100%,100%);fill-opacity:1;" d="M 29.535156 15 C 29.535156 6.972656 23.027344 0.464844 15 0.464844 C 6.972656 0.464844 0.464844 6.972656 0.464844 15 C 0.464844 23.027344 6.972656 29.535156 15 29.535156 C 23.027344 29.535156 29.535156 23.027344 29.535156 15 Z M 29.535156 15 "/>
<path style=" stroke:none;fill-rule:nonzero;fill:rgb(100%,50.588238%,49.411765%);fill-opacity:1;" d="M 23.003906 10.128906 C 22.664062 9.246094 21.96875 9.386719 21.210938 9.539062 C 20.757812 9.632812 18.75 10.21875 15.578125 13.570312 C 14.261719 14.957031 13.394531 16.066406 12.820312 16.910156 C 12.46875 16.484375 12.070312 16.019531 11.648438 15.601562 C 10.351562 14.308594 8.90625 13.417969 8.847656 13.382812 C 8.242188 13.011719 7.453125 13.199219 7.078125 13.808594 C 6.707031 14.414062 6.894531 15.203125 7.5 15.578125 C 7.511719 15.585938 8.753906 16.351562 9.820312 17.425781 C 10.910156 18.515625 11.902344 19.992188 11.914062 20.007812 C 12.152344 20.371094 12.558594 20.582031 12.984375 20.582031 C 13.054688 20.582031 13.132812 20.578125 13.207031 20.566406 C 13.710938 20.476562 14.109375 20.101562 14.234375 19.609375 C 14.238281 19.597656 14.75 18.1875 17.4375 15.351562 C 19.605469 13.058594 21.054688 12.332031 21.558594 12.132812 C 21.5625 12.132812 21.5625 12.132812 21.574219 12.132812 C 21.574219 12.132812 21.59375 12.128906 21.621094 12.109375 C 21.710938 12.074219 21.757812 12.0625 21.757812 12.0625 C 21.734375 12.070312 21.722656 12.070312 21.722656 12.070312 L 21.722656 12.0625 C 21.957031 11.964844 22.390625 11.777344 22.394531 11.769531 C 23.046875 11.488281 23.261719 10.785156 23.003906 10.128906 Z M 23.003906 10.128906 "/>
</g>
</svg>
