<?xml version="1.0" encoding="UTF-8"?>
<svg xmlns="http://www.w3.org/2000/svg" xmlns:xlink="http://www.w3.org/1999/xlink" viewBox="0 0 100 100" width="100px" height="100px">
<g id="surface254461835">
<path style=" stroke:none;fill-rule:nonzero;fill:rgb(98.431373%,87.450981%,79.215688%);fill-opacity:1;" d="M 13 27 C 11.894531 27 11 27.894531 11 29 C 11 30.105469 11.894531 31 13 31 C 14.105469 31 15 30.105469 15 29 C 15 27.894531 14.105469 27 13 27 Z M 13 27 "/>
<path style=" stroke:none;fill-rule:nonzero;fill:rgb(94.509804%,73.725492%,9.803922%);fill-opacity:1;" d="M 77 12 C 76.449219 12 76 12.449219 76 13 C 76 13.550781 76.449219 14 77 14 C 77.550781 14 78 13.550781 78 13 C 78 12.449219 77.550781 12 77 12 Z M 77 12 "/>
<path style=" stroke:none;fill-rule:nonzero;fill:rgb(98.431373%,87.450981%,79.215688%);fill-opacity:1;" d="M 50 13 C 29.566406 13 13 29.566406 13 50 C 13 70.433594 29.566406 87 50 87 C 70.433594 87 87 70.433594 87 50 C 87 29.566406 70.433594 13 50 13 Z M 50 13 "/>
<path style=" stroke:none;fill-rule:nonzero;fill:rgb(94.509804%,73.725492%,9.803922%);fill-opacity:1;" d="M 83 11 C 80.789062 11 79 12.789062 79 15 C 79 17.210938 80.789062 19 83 19 C 85.210938 19 87 17.210938 87 15 C 87 12.789062 85.210938 11 83 11 Z M 83 11 "/>
<path style=" stroke:none;fill-rule:nonzero;fill:rgb(98.431373%,87.450981%,79.215688%);fill-opacity:1;" d="M 87 22 C 85.894531 22 85 22.894531 85 24 C 85 25.105469 85.894531 26 87 26 C 88.105469 26 89 25.105469 89 24 C 89 22.894531 88.105469 22 87 22 Z M 87 22 "/>
<path style=" stroke:none;fill-rule:nonzero;fill:rgb(98.431373%,80.392158%,34.901962%);fill-opacity:1;" d="M 81 74 C 79.894531 74 79 74.894531 79 76 C 79 77.105469 79.894531 78 81 78 C 82.105469 78 83 77.105469 83 76 C 83 74.894531 82.105469 74 81 74 Z M 15 59 C 12.789062 59 11 60.789062 11 63 C 11 65.210938 12.789062 67 15 67 C 17.210938 67 19 65.210938 19 63 C 19 60.789062 17.210938 59 15 59 Z M 15 59 "/>
<path style=" stroke:none;fill-rule:nonzero;fill:rgb(98.431373%,87.450981%,79.215688%);fill-opacity:1;" d="M 25 85 C 23.894531 85 23 85.894531 23 87 C 23 88.105469 23.894531 89 25 89 C 26.105469 89 27 88.105469 27 87 C 27 85.894531 26.105469 85 25 85 Z M 25 85 "/>
<path style=" stroke:none;fill-rule:nonzero;fill:rgb(100%,100%,100%);fill-opacity:1;" d="M 18.5 51 C 17.121094 51 16 52.121094 16 53.5 C 16 54.878906 17.121094 56 18.5 56 C 19.878906 56 21 54.878906 21 53.5 C 21 52.121094 19.878906 51 18.5 51 Z M 18.5 51 "/>
<path style=" stroke:none;fill-rule:nonzero;fill:rgb(94.509804%,73.725492%,9.803922%);fill-opacity:1;" d="M 21 66 C 20.449219 66 20 66.449219 20 67 C 20 67.550781 20.449219 68 21 68 C 21.550781 68 22 67.550781 22 67 C 22 66.449219 21.550781 66 21 66 Z M 21 66 "/>
<path style=" stroke:none;fill-rule:nonzero;fill:rgb(100%,100%,100%);fill-opacity:1;" d="M 80 33 C 79.449219 33 79 33.449219 79 34 C 79 34.550781 79.449219 35 80 35 C 80.550781 35 81 34.550781 81 34 C 81 33.449219 80.550781 33 80 33 Z M 80 33 "/>
<path style=" stroke:none;fill-rule:nonzero;fill:rgb(99.215686%,98.823529%,93.333334%);fill-opacity:1;" d="M 50 26 C 36.746094 26 26 36.746094 26 50 C 26 63.253906 36.746094 74 50 74 C 63.253906 74 74 63.253906 74 50 C 74 36.746094 63.253906 26 50 26 Z M 50 26 "/>
<path style=" stroke:none;fill-rule:nonzero;fill:rgb(81.176472%,61.56863%,7.058824%);fill-opacity:1;" d="M 50 26.398438 C 63 26.398438 73.601562 37 73.601562 50 C 73.601562 63 63 73.601562 50 73.601562 C 37 73.601562 26.398438 63 26.398438 50 C 26.398438 37 37 26.398438 50 26.398438 M 50 25 C 36.199219 25 25 36.199219 25 50 C 25 63.800781 36.199219 75 50 75 C 63.800781 75 75 63.800781 75 50 C 75 36.199219 63.800781 25 50 25 Z M 50 25 "/>
<path style=" stroke:none;fill-rule:nonzero;fill:rgb(98.431373%,87.450981%,79.215688%);fill-opacity:1;" d="M 50 30.398438 C 39.175781 30.398438 30.398438 39.175781 30.398438 50 C 30.398438 60.824219 39.175781 69.601562 50 69.601562 C 60.824219 69.601562 69.601562 60.824219 69.601562 50 C 69.601562 39.175781 60.824219 30.398438 50 30.398438 Z M 50 30.398438 "/>
<path style=" stroke:none;fill-rule:nonzero;fill:rgb(98.431373%,87.450981%,79.215688%);fill-opacity:1;" d="M 50 33.398438 C 60.300781 33.398438 68.800781 41.398438 69.5 51.5 C 69.5 51 69.601562 50.5 69.601562 50 C 69.601562 39.199219 60.800781 30.398438 50 30.398438 C 39.199219 30.398438 30.398438 39.199219 30.398438 50 C 30.398438 50.5 30.398438 51 30.5 51.5 C 31.199219 41.398438 39.699219 33.398438 50 33.398438 Z M 50 33.398438 "/>
<path style=" stroke:none;fill-rule:nonzero;fill:rgb(81.176472%,61.56863%,7.058824%);fill-opacity:1;" d="M 50 30.800781 C 60.601562 30.800781 69.300781 39.398438 69.300781 50 C 69.300781 60.601562 60.699219 69.300781 50 69.300781 C 39.398438 69.300781 30.800781 60.699219 30.800781 50 C 30.800781 39.398438 39.398438 30.800781 50 30.800781 M 50 30 C 39 30 30 39 30 50 C 30 61 39 70 50 70 C 61 70 70 61 70 50 C 70 39 61 30 50 30 Z M 50 30 "/>
<path style=" stroke:none;fill-rule:nonzero;fill:rgb(99.215686%,98.823529%,93.333334%);fill-opacity:1;" d="M 52.300781 50 L 58.199219 44.101562 C 58.5 43.800781 58.699219 43.398438 58.699219 43 C 58.699219 42.601562 58.5 42.199219 58.199219 41.898438 C 57.601562 41.300781 56.5 41.300781 55.898438 41.898438 L 50 47.699219 L 44.101562 41.800781 C 43.5 41.199219 42.398438 41.199219 41.800781 41.800781 C 41.199219 42.398438 41.199219 43.5 41.800781 44.101562 L 47.699219 50 L 41.800781 55.898438 C 41.199219 56.5 41.199219 57.601562 41.800781 58.199219 C 42.398438 58.800781 43.5 58.800781 44.101562 58.199219 L 50 52.300781 L 55.898438 58.199219 C 56.199219 58.5 56.601562 58.699219 57 58.699219 C 57.398438 58.699219 57.800781 58.5 58.101562 58.199219 C 58.699219 57.601562 58.699219 56.5 58.101562 55.898438 Z M 52.300781 50 "/>
<path style=" stroke:none;fill-rule:nonzero;fill:rgb(81.176472%,61.56863%,7.058824%);fill-opacity:1;" d="M 43 59 C 42.5 59 42 58.800781 41.601562 58.398438 C 40.800781 57.601562 40.800781 56.398438 41.601562 55.601562 L 47.199219 50 L 41.601562 44.398438 C 41.199219 44 41 43.5 41 43 C 41 42.5 41.199219 42 41.601562 41.601562 C 42.398438 40.800781 43.699219 40.800781 44.398438 41.601562 L 50 47.199219 L 55.601562 41.601562 C 56.398438 40.800781 57.601562 40.800781 58.398438 41.601562 C 58.800781 42 59 42.5 59 43 C 59 43.5 58.800781 44 58.398438 44.398438 L 52.800781 50 L 58.398438 55.601562 C 59.199219 56.398438 59.199219 57.601562 58.398438 58.398438 C 57.601562 59.199219 56.300781 59.199219 55.601562 58.398438 L 50 52.800781 L 44.398438 58.398438 C 44 58.800781 43.5 59 43 59 Z M 43 41.699219 C 42.699219 41.699219 42.398438 41.800781 42.101562 42.101562 C 41.898438 42.300781 41.699219 42.601562 41.699219 43 C 41.699219 43.398438 41.800781 43.601562 42.101562 43.898438 L 48.199219 50 L 42.101562 56.101562 C 41.601562 56.601562 41.601562 57.398438 42.101562 57.898438 C 42.601562 58.398438 43.398438 58.398438 43.898438 57.898438 L 50 51.800781 L 56.101562 57.898438 C 56.601562 58.398438 57.398438 58.398438 57.898438 57.898438 C 58.398438 57.398438 58.398438 56.601562 57.898438 56.101562 L 51.800781 50 L 57.898438 43.898438 C 58.101562 43.699219 58.300781 43.300781 58.300781 43 C 58.300781 42.699219 58.199219 42.398438 57.898438 42.101562 C 57.398438 41.601562 56.601562 41.601562 56.101562 42.101562 L 50 48.199219 L 43.898438 42.101562 C 43.601562 41.898438 43.300781 41.699219 43 41.699219 Z M 43 41.699219 "/>
</g>
</svg>
